# xmcd CD database file
#
# Track frame offsets:
#	150
#	24340
#	42613
#	64268
#	83556
#	102919
#	119851
#	134311
#	152531
#	172026
#	187527
#	202480
#	220588
#	237878
#	256655
#	275652
#	296792
#	319007
#	338585
#
# Disc length: 4745 seconds
#
# Revision: 0
# Processed by: cddbd v1.4PL0 Copyright (c) Steve Scherf et al.
# Submitted via: CdAid 2001.05.15.01
#
DISCID=17128713
DTITLE=Vários - Balada Sertaneja
DYEAR=1900
DGENRE=
TTITLE0=João Paulo and Daniel - Te amo cada vez mais
TTITLE1=Zezé di Camargo and Luciano - Vem ficar comigo
TTITLE2=Chitãozinho and Xororó - Um homem quando ama
TTITLE3=Leandro and Leonardo - Dor de amor não tem jeito
TTITLE4=Gian and Givani - O grande amor da minha vida
TTITLE5=Gilberto and Gilmar - Faz ela feliz
TTITLE6=Chrystian and Ralf - Chora peito
TTITLE7=Leandro and Leonardo - Em nome do amor
TTITLE8=Chitãozinho and Xororó - É assim que te amo
TTITLE9=Ataíde and Alexandre - Deus me livre
TTITLE10=Chrystian and Ralf - Sensível demais
TTITLE11=Gian and Giovani - Alô
TTITLE12=Chitãozinho and Xororó - Só quem amou demais
TTITLE13=Zezé di Camargo and Luciano - Faz mais uma vez comigo
TTITLE14=Rick and Renner - Cara-de-pau
TTITLE15=Leandro and Leonardo - Foi um tiro em minha vida
TTITLE16=Chitãozinho and Xororó - O Homen de Nazareth
TTITLE17=Rick and Renner - Diga que ainda me ama
TTITLE18=Chitãozinho and Xororó - Te esquecer é impossível
EXTD=18/09/2000
EXTT0=
EXTT1=
EXTT2=
EXTT3=
EXTT4=
EXTT5=
EXTT6=
EXTT7=
EXTT8=
EXTT9=
EXTT10=
EXTT11=
EXTT12=
EXTT13=
EXTT14=
EXTT15=
EXTT16=
EXTT17=
EXTT18=
PLAYORDER=
